<svg xmlns="http://www.w3.org/2000/svg" version="1.1" xmlns:xlink="http://www.w3.org/1999/xlink" width="359" height="359"><svg xmlns="http://www.w3.org/2000/svg" version="1.1" xmlns:xlink="http://www.w3.org/1999/xlink" width="359" height="359"><svg width="359" height="359" viewBox="0 0 359 359" fill="none" xmlns="http://www.w3.org/2000/svg">
<rect width="359" height="359" fill="#D9D9D9"></rect>
<path d="M59.5335 60.5335C49.0002 65.3335 45.8002 73.3335 50.8669 83.0669C56.2002 93.3335 149.534 181.467 262.334 282.667C282.067 300.4 283.134 301.2 288.2 300C293.8 298.8 302.334 292.267 306.467 286L310.067 280.667L305.267 275.067C302.6 271.867 254.334 223.067 198.067 166.4C115.267 83.2002 94.4669 63.0668 89.4002 60.8002C81.1335 57.2002 67.2669 57.0668 59.5335 60.5335Z" fill="#32404D"></path>
<path d="M120.333 59.0666C120.333 59.5999 128.6 68.2666 138.733 78.3999L157.133 96.7999L167 98.1332C180.333 99.9999 195.934 105.067 209.667 112C248.734 131.733 277.934 171.333 284.6 213.867L286.2 224.667L301.267 239.6C310.734 249.067 316.734 254.133 317.534 253.333C318.2 252.533 319.8 248.4 321 244C324.067 233.6 325.4 169.867 323.134 150.267C321.4 135.467 316.067 118.8 309.534 107.733C299.4 90.5332 275.4 71.0666 256.334 64.6666C237.8 58.3999 232.467 57.9999 174.867 57.9999C144.867 57.9999 120.333 58.3999 120.333 59.0666Z" fill="#32404D"></path>
<path d="M41 113.467C37.1333 121.733 35 140.8 35 168.667C35 210.267 37.5333 224.933 47.9333 246C53.2667 256.667 56.2 260.667 67 271.333C81.6667 286 91.6667 292.4 109.4 298.133C128.067 304 142.467 304.933 204.067 304.133C233.933 303.733 258.6 303.467 259 303.467C259.267 303.333 252.733 296.4 244.333 288L229 272.667H217C181.4 272.667 153.8 260.667 127.267 233.6C121.4 227.6 114.6 220.267 112.333 217.467C100.733 202.667 90.4667 180.533 86.7333 162.133L84.2 149.333L64.6 129.333C53.8 118.4 44.6 109.2 44.2 108.933C43.6667 108.8 42.3333 110.8 41 113.467Z" fill="#32404D"></path>
</svg></svg><style>@media (prefers-color-scheme: light) { :root { filter: none; } }
@media (prefers-color-scheme: dark) { :root { filter: none; } }
</style></svg>
