<svg width="1422" height="247" viewBox="0 0 1422 247" fill="none" xmlns="http://www.w3.org/2000/svg">
<path d="M24.5335 2.53353C14.0002 7.33353 10.8002 15.3335 15.8669 25.0669C21.2002 35.3335 114.534 123.467 227.334 224.667C247.067 242.4 248.134 243.2 253.2 242C258.8 240.8 267.334 234.267 271.467 228L275.067 222.667L270.267 217.067C267.6 213.867 219.334 165.067 163.067 108.4C80.2669 25.2002 59.4669 5.06686 54.4002 2.8002C46.1335 -0.799802 32.2669 -0.933135 24.5335 2.53353Z" fill="#32404D"/>
<path d="M85.3335 1.06657C85.3335 1.59991 93.6002 10.2666 103.733 20.3999L122.133 38.7999L132 40.1332C145.333 41.9999 160.934 47.0666 174.667 53.9999C213.734 73.7332 242.934 113.333 249.6 155.867L251.2 166.667L266.267 181.6C275.734 191.067 281.734 196.133 282.534 195.333C283.2 194.533 284.8 190.4 286 186C289.067 175.6 290.4 111.867 288.134 92.2666C286.4 77.4666 281.067 60.7999 274.534 49.7332C264.4 32.5332 240.4 13.0666 221.334 6.66657C202.8 0.399907 197.467 -9.25892e-05 139.867 -9.25892e-05C109.867 -9.25892e-05 85.3335 0.399907 85.3335 1.06657Z" fill="#32404D"/>
<path d="M396.8 88.3998C386.667 117.867 374.267 153.867 369.2 168.267L360.133 194.667H378H395.733L402 176L408.267 157.333L437.067 157.6L465.867 158L471.867 176.267L477.867 194.667H495.6C505.333 194.667 513.333 194.4 513.333 194.267C513.333 193.6 464.933 52.9332 461.067 42.2665L458.267 34.6665H436.8H415.333L396.8 88.3998ZM447.333 100.667C452.267 116 456.667 129.467 456.933 130.267C457.467 131.6 453.067 132 437.467 132C423.867 132 417.333 131.467 417.333 130.533C417.333 126.8 436.4 70.5332 437.333 71.5998C438 72.1332 442.4 85.1998 447.333 100.667Z" fill="#32404D"/>
<path d="M792 114.667V194.667H808H824V114.667V34.6665H808H792V114.667Z" fill="#32404D"/>
<path d="M974.667 114.667V194.667H1025.33H1076V181.333V168L1041.73 167.733L1007.33 167.333L1006.93 100.933L1006.67 34.6665H990.667H974.667V114.667Z" fill="#3B82F6"/>
<path d="M6 55.4667C2.13333 63.7333 0 82.8 0 110.667C0 152.267 2.53333 166.933 12.9333 188C18.2667 198.667 21.2 202.667 32 213.333C46.6667 228 56.6667 234.4 74.4 240.133C93.0667 246 107.467 246.933 169.067 246.133C198.933 245.733 223.6 245.467 224 245.467C224.267 245.333 217.733 238.4 209.333 230L194 214.667H182C146.4 214.667 118.8 202.667 92.2667 175.6C86.4 169.6 79.6 162.267 77.3333 159.467C65.7333 144.667 55.4667 122.533 51.7333 104.133L49.2 91.3333L29.6 71.3333C18.8 60.4 9.6 51.2 9.2 50.9333C8.66667 50.8 7.33333 52.8 6 55.4667Z" fill="#32404D"/>
<path d="M581.6 75.2C574 77.7333 567.333 82.9333 563.733 89.3333C562 92.2667 560.267 94.6667 559.733 94.6667C559.067 94.6667 558.667 90.1333 558.667 84.6667V74.6667H542.667H526.667V157.333V240H542.667H558.667V208C558.667 187.6 559.2 176 560 176C560.8 176 561.333 176.533 561.333 177.067C561.333 177.733 563.6 180.8 566.267 184C573.067 191.867 582.267 196 593.467 196C622.133 196 640.267 175.6 642.267 141.2C644.133 110.533 633.867 87.6 613.867 77.8667C604.933 73.4667 590.533 72.2667 581.6 75.2ZM594.667 102C611.2 110.533 614.267 148.533 599.6 163.733C592.4 171.2 580.667 172.4 571.2 166.533C568.933 165.2 565.333 160.933 563.2 157.067C559.6 150.4 559.333 149.067 559.333 134.667C559.333 121.333 559.733 118.667 562.4 113.733C565.6 107.6 569.867 103.067 574 101.333C578.4 99.4667 590.533 99.8667 594.667 102Z" fill="#32404D"/>
<path d="M716 74.5333C707.467 77.2 698.533 84.4 694.8 91.6C692 97.0666 690.667 94.8 690.667 84.6666V74.6666H674.667H658.667V157.333V240.133L675.067 239.733L691.333 239.333L692 207.6L692.667 176L697.333 182.267C704.267 191.6 713.6 196 726.133 196C749.2 196 766.4 181.867 772.667 158C775.6 146.533 775.333 121.733 772.133 110.267C767.467 93.4666 757.2 81.7333 741.867 76C734.4 73.3333 722.533 72.6666 716 74.5333ZM729.6 103.333C731.6 104.8 734.8 108.933 736.933 112.667C741.6 121.333 742.8 139.333 739.467 151.067C735.6 164.533 724.933 171.867 712.267 170C696.267 167.6 686.667 144.133 692.533 121.467C694.933 111.867 698.533 106.267 704.533 102.4C710.133 98.9333 724.267 99.4666 729.6 103.333Z" fill="#32404D"/>
<path d="M1128.93 74.6665C1115.07 77.0665 1100.53 86.6665 1092.53 98.6665C1081.07 116 1080 146.933 1090 167.6C1094.53 176.8 1107.07 188.266 1116.93 192.266C1123.73 194.933 1126.8 195.333 1142 195.2C1161.33 195.2 1166.67 193.866 1178 186C1185.6 180.8 1193.33 170.266 1193.73 164.533L1194 160.666L1180 159.866C1170 159.2 1165.87 159.333 1165.47 160.533C1163.87 164.933 1156.13 170.4 1149.73 171.733C1131.6 175.733 1116.93 165.866 1114.93 148.4L1114.27 142.666H1155.2H1196V133.333C1196 102.133 1180.53 80.9332 1153.73 75.3332C1143.87 73.1998 1138.67 73.0665 1128.93 74.6665ZM1153.47 100.4C1159.6 103.733 1164.27 110.4 1166 118.266L1166.93 122.666H1140.8C1111.73 122.666 1112.8 123.066 1116.67 113.6C1122.8 99.1998 1139.73 93.1998 1153.47 100.4Z" fill="#3B82F6"/>
<path d="M1243.73 74.6667C1232 76.6667 1224.13 80.1333 1217.47 86.1333C1208.93 93.8667 1206.13 100.667 1206.93 113.2C1207.33 121.067 1208.13 123.467 1211.47 128.267C1217.47 136.667 1228.67 141.733 1250 146.133C1268.8 149.867 1275.2 152.8 1276.53 158.133C1278.67 166.667 1270 173.333 1256.67 173.333C1246.67 173.333 1240.27 170.267 1236.67 163.6L1234 158.667L1218.67 159.467C1210.27 160 1203.2 160.533 1202.93 160.667C1202.8 160.8 1203.87 164.267 1205.33 168.4C1212.13 186.533 1229.87 196 1257.07 196C1276.27 196 1291.6 190.133 1301.2 179.067C1312.13 166.8 1312.27 148.4 1301.6 137.867C1295.33 131.6 1286.4 128 1266.27 123.867C1245.2 119.467 1241.07 117.733 1238.8 112.267C1236.4 106.533 1238.8 101.733 1245.6 98.6667C1256.8 93.6 1271.33 96.9333 1275.47 105.6L1277.6 110.133L1286.4 109.733C1291.33 109.467 1297.87 108.933 1301.07 108.533C1306.4 107.867 1306.67 107.6 1305.87 104.267C1303.33 93.8667 1294.13 83.3333 1283.47 78.5333C1273.2 74 1257.07 72.4 1243.73 74.6667Z" fill="#3B82F6"/>
<path d="M1354.67 74.8001C1328.4 79.4668 1314 98.4001 1320.13 120.4C1322 127.333 1329.47 135.2 1337.73 139.2C1341.6 140.933 1352.27 143.867 1361.6 145.867C1379.6 149.467 1385.73 151.733 1388 155.867C1392.8 164.933 1384.27 173.333 1370.13 173.333C1358.8 173.333 1350.8 169.067 1347.87 161.467C1346.67 158.533 1346.13 158.4 1339.6 159.2C1335.87 159.6 1328.93 160 1324.4 160C1314.53 160 1314.27 160.8 1319.2 171.333C1323.07 179.867 1332.67 188.4 1342.53 192.133C1352.93 196.133 1376 197.2 1388 194.133C1408.93 188.667 1421.6 175.2 1421.73 158C1421.73 148 1418 140.133 1410.53 134.667C1404 130 1397.33 127.733 1377.2 123.467C1358.67 119.467 1357.47 119.067 1353.73 115.6C1346.8 109.467 1352.4 98.6668 1363.47 96.5335C1374.13 94.5335 1383.47 98.0001 1388 105.733L1390.53 110L1404 109.2C1411.33 108.8 1417.73 108.133 1418.13 107.6C1419.6 106.267 1417.2 99.0668 1413.33 92.8001C1408.8 85.7335 1399.87 79.4668 1390 76.6668C1381.47 74.0001 1363.87 73.0668 1354.67 74.8001Z" fill="#3B82F6"/>
<path d="M836.133 76.2666C836.133 77.1999 845.6 104.933 857.2 138C877.867 196.667 878.267 198.133 876.533 202.667C875.467 205.2 873.067 208.8 871.067 210.4C868.133 213.067 866.4 213.467 859.6 213.067L851.467 212.667L847.867 224.4C845.867 230.8 844.8 236.267 845.333 236.667C845.867 237.067 850.533 237.867 855.467 238.533C877.6 241.733 895.067 234.4 904.667 218C906.4 215.067 918.267 182.533 931.2 145.867C944.133 109.067 954.933 77.9999 955.467 76.7999C956.133 74.9332 954.4 74.6666 938.8 74.6666H921.467L919.2 82.2666C918 86.5332 912.4 106 906.8 125.6C901.2 145.333 896.133 161.333 895.467 161.333C894.8 161.467 888.8 142.133 882.133 118.4L870 75.3332L852.933 74.9332C839.867 74.6666 836 74.9332 836.133 76.2666Z" fill="#32404D"/>
</svg>
